<?xml version="1.0"?>
<svg width="1004" height="530.58" xmlns="http://www.w3.org/2000/svg" xmlns:svg="http://www.w3.org/2000/svg">
 <title>ifood-43</title>
 <g class="layer">
  <title>Layer 1</title>
  <path d="m0,304.6l76.41,0l42.46,-211.2l-76.42,0l-42.45,211.2zm46.66,-236.39l76.73,0l12.61,-63.19l-76.7,0l-12.64,63.19zm59.47,295.82l76.42,0l46.69,-228.18l57.31,0l8.45,-42.45l-56.21,0l2.13,-9.55c3.18,-18 9.55,-38.21 38.2,-38.21c17,0 32.91,1.06 48.82,8.49l8.5,-44.57a167.8,167.8 0 0 0 -55.19,-9.56c-61.56,0 -104,36.09 -119.93,93.4l-26.53,0l-8.49,42.45l26.53,0l-46.7,228.18z" fill="#ffffff" id="svg_1"/>
  <path d="m348.11,308.85c90.21,0 152.83,-81.73 152.83,-148.59c0,-49.88 -45.64,-71.11 -90.21,-71.11c-98.73,0 -152.83,88.14 -152.83,148.59c0,49.88 46.7,71.11 90.21,71.11m242,0c90.21,0 152.83,-81.73 152.83,-148.59c0,-49.88 -46.7,-71.11 -91.28,-71.11c-98.7,0 -152.82,88.09 -152.82,148.59c0,49.88 47.76,71.11 91.27,71.11m277,-4.25l75.35,0l61.54,-300.31l-76.41,0l-18.05,89.15l-31.84,-3.18c-74.29,0 -142.21,95.51 -142.21,163.44c0,27.59 18,55.19 48.82,55.19c43.51,0 74.29,-21.23 87,-42.46l4.24,0l-8.44,38.17zm-235.63,158.14a295,295 0 0 1 -212.26,66.86c-100.83,-6.37 -173,-83.85 -185.73,-165.57l4.24,0c23.35,51 79.6,98.71 148.59,106.13c70,8.49 153.89,-23.34 199.52,-66.86l-50.94,-39.27l153.89,0l-34,163.45l-22.29,-63.68l-1.02,-1.06z" fill="#ffffff" id="svg_2" transform="matrix(1 0 0 1 0 0)"/>
 </g>
</svg>